<svg width="23" height="23" viewBox="0 0 23 23" fill="none" xmlns="http://www.w3.org/2000/svg">
<path d="M18.9818 6.96523L8.17057 1.54748C0.891178 -2.08235 -2.08423 0.893063 1.55458 8.16346L3.16285 11.3718L1.55351 14.5806C-2.08765 21.8522 0.895754 24.8356 8.16733 21.1944L18.9803 15.7911C23.8251 13.3546 23.8347 9.3911 18.9818 6.96523ZM14.4332 12.0889L7.5846 12.108C7.31497 12.1081 7.08131 12.0002 6.91058 11.8295C6.73984 11.6588 6.63203 11.4251 6.63207 11.1555C6.63215 10.6342 7.06363 10.2027 7.58491 10.2026L14.4335 10.1835C14.9548 10.1834 15.3861 10.6148 15.386 11.1361C15.386 11.6574 14.9545 12.0888 14.4332 12.0889Z" fill="#F8F9FA" fill-opacity="0.4"/>
</svg>
