<svg width="15" height="16" viewBox="0 0 15 16" fill="none" xmlns="http://www.w3.org/2000/svg">
<path d="M8.36257 14.6363C8.27893 15.3876 7.63065 15.9825 6.8547 15.9933C6.00187 16.0054 5.14874 15.996 4.29562 15.996C3.44249 15.996 2.58936 16.0071 1.73653 15.9919C0.973496 15.9784 0.345755 15.3923 0.24979 14.6387C0.155585 13.9 0.619272 13.1898 1.33887 12.97C1.3465 12.9676 1.35384 12.9635 1.36176 12.9615C1.80901 12.8341 1.82222 12.8335 1.80579 12.3543C1.78554 11.7673 1.89647 11.23 2.29236 10.7751C3.19039 9.74294 4.82915 9.89467 5.51324 11.085C5.62065 11.2719 5.7125 11.3339 5.93437 11.2708C6.31588 11.1616 6.65015 11.2981 6.89931 11.6006C7.14231 11.8962 7.19073 12.2337 7.04811 12.5935C6.93688 12.8743 6.93717 12.8743 7.22565 12.9532C7.5854 13.051 7.89808 13.2747 8.10675 13.5836C8.31542 13.8925 8.4062 14.2661 8.36257 14.6363Z" fill="#A1A1A1"/>
<path d="M2.14089 1.91961C2.20545 2.08773 2.2583 2.26012 2.29907 2.43554C2.31756 2.51448 2.29526 2.60282 2.29144 2.68704C2.21015 2.66767 2.11771 2.6665 2.04991 2.62512C1.8825 2.52196 1.72121 2.40917 1.56685 2.28733C1.46003 2.20428 1.37668 2.19724 1.26516 2.28528C1.09018 2.421 0.908273 2.54755 0.720185 2.66445C0.693257 2.67922 0.663609 2.68837 0.633039 2.69135C0.602468 2.69433 0.57161 2.69106 0.542338 2.68176C0.507415 2.66855 0.496852 2.59166 0.486287 2.5676C0.564351 2.30758 0.643588 2.08278 0.694653 1.85182C0.700503 1.8092 0.696911 1.76581 0.684131 1.72473C0.671351 1.68365 0.649694 1.64588 0.620697 1.6141C0.456645 1.46737 0.26853 1.34763 0.0974352 1.20676C0.0490121 1.16656 0.0316951 1.08937 0 1.02862C0.0604555 0.997223 0.119445 0.942344 0.181368 0.938822C0.40206 0.925909 0.625099 0.942637 0.844324 0.921507C0.886642 0.913353 0.926645 0.895978 0.961491 0.870617C0.996336 0.845256 1.02517 0.812533 1.04594 0.77477C1.13398 0.581665 1.18563 0.373298 1.26546 0.176084C1.29246 0.109172 1.35966 0.0586947 1.40867 0C1.46032 0.0554665 1.53311 0.102423 1.55952 0.168161C1.63839 0.365598 1.70696 0.566996 1.76495 0.771542C1.80075 0.896562 1.86679 0.937061 1.99327 0.932366C2.1981 0.924195 2.40321 0.926448 2.6078 0.939115C2.68029 0.94381 2.74985 0.993115 2.82087 1.02217C2.77978 1.09319 2.75308 1.18094 2.69467 1.232C2.5544 1.35658 2.40445 1.46983 2.24625 1.57067C2.09746 1.66311 2.0822 1.76788 2.14089 1.91961Z" fill="#A1A1A1"/>
<path d="M12.4321 2.77193C12.4004 2.83238 12.3825 2.91045 12.3338 2.95065C12.1636 3.09152 11.9746 3.21038 11.8103 3.35741C11.7802 3.38893 11.7575 3.42668 11.7437 3.46796C11.7299 3.50924 11.7254 3.55306 11.7304 3.59629C11.7765 3.8117 11.8596 4.0186 11.9144 4.23225C11.9303 4.293 11.9004 4.36549 11.8913 4.4324C11.8246 4.42271 11.748 4.43005 11.6935 4.39924C11.5728 4.33086 11.4634 4.24311 11.3489 4.16446L11.0158 3.93291C10.7811 4.09696 10.5686 4.25103 10.3488 4.39366C10.2957 4.42829 10.2179 4.42506 10.1513 4.43915C10.1401 4.36578 10.1061 4.28742 10.1219 4.22022C10.1806 3.95932 10.3634 3.66878 10.2962 3.45249C10.2326 3.24706 9.9112 3.12468 9.70929 2.9574C9.6594 2.91602 9.63622 2.84265 9.60071 2.78396C9.66791 2.7505 9.73277 2.69592 9.80261 2.6877C10.0703 2.66246 10.4031 2.74346 10.5891 2.61198C10.7652 2.48814 10.7796 2.14448 10.8758 1.90178C10.8996 1.84308 10.9639 1.79906 11.0105 1.74829C11.0631 1.80229 11.1385 1.8469 11.1646 1.91176C11.2442 2.10838 11.2935 2.31792 11.3794 2.51162C11.4002 2.54974 11.4291 2.58286 11.464 2.60861C11.4989 2.63437 11.5391 2.65215 11.5817 2.6607C11.8006 2.68535 12.0236 2.67273 12.2443 2.68829C12.3089 2.6921 12.3711 2.74229 12.4321 2.77193Z" fill="#A1A1A1"/>
<path d="M9.29455 4.80266C9.23967 4.88424 9.20006 4.98491 9.12698 5.0439C8.8787 5.24483 8.62339 5.43705 8.36102 5.62057C8.2539 5.69541 8.23541 5.76995 8.27298 5.88646C8.37276 6.18961 8.47166 6.49365 8.55559 6.80151C8.57995 6.89102 8.55266 6.99461 8.54884 7.09175C8.45552 7.06035 8.34987 7.04685 8.27063 6.99432C7.96365 6.79065 7.6649 6.57436 7.35704 6.35866C7.04831 6.57436 6.74926 6.78977 6.44199 6.99315C6.36217 7.04568 6.25711 7.06035 6.16349 7.09234C6.16173 6.98728 6.13619 6.87605 6.16202 6.77862C6.24008 6.48514 6.33312 6.19754 6.43026 5.91082C6.47575 5.77611 6.45784 5.69042 6.33194 5.60384C6.06781 5.42306 5.81484 5.22761 5.56627 5.02687C5.49965 4.97287 5.4662 4.87808 5.41748 4.80178C5.49672 4.77449 5.57507 4.72724 5.65548 4.72342C5.95042 4.70992 6.24625 4.69965 6.5406 4.71022C6.74163 4.71755 6.84934 4.65944 6.9048 4.45225C6.98521 4.15262 7.09791 3.8609 7.20826 3.57036C7.23379 3.50345 7.3054 3.45444 7.35499 3.39722C7.40488 3.45591 7.4762 3.50404 7.50173 3.57095C7.61472 3.86942 7.72829 4.16905 7.81339 4.47602C7.86593 4.66443 7.96277 4.71579 8.14561 4.7108C8.43908 4.70141 8.73607 4.7108 9.03072 4.7243C9.12082 4.72753 9.2071 4.77566 9.29455 4.80266Z" fill="#A1A1A1"/>
<path d="M13.6664 7.29957C13.6315 7.36618 13.6133 7.45364 13.5596 7.4959C13.2506 7.73919 12.9398 7.9813 12.6161 8.20405C12.4658 8.30735 12.4435 8.40361 12.5016 8.56913C12.6208 8.90839 12.7232 9.2541 12.8198 9.60069C12.8459 9.69343 12.8268 9.79879 12.8286 9.89798C12.7285 9.8657 12.6152 9.85337 12.531 9.79732C12.177 9.56254 11.8316 9.31191 11.463 9.05366C11.0944 9.31162 10.7417 9.56459 10.3816 9.80612C10.3026 9.85924 10.197 9.87274 10.1037 9.90414C10.1037 9.79908 10.0775 9.68726 10.1037 9.59013C10.1996 9.24324 10.3032 8.89782 10.4244 8.55915C10.4855 8.38864 10.4423 8.29796 10.3003 8.19906C9.99125 7.98365 9.6925 7.75298 9.39638 7.51996C9.33416 7.47066 9.30101 7.38409 9.25464 7.31453C9.33065 7.28342 9.40578 7.22855 9.48326 7.22649C9.87622 7.2083 10.2698 7.19714 10.663 7.19714C10.8098 7.19714 10.8799 7.15107 10.9245 7.01049C11.0419 6.63602 11.1722 6.26478 11.3081 5.8953C11.3348 5.8231 11.4114 5.76881 11.4648 5.7063C11.5164 5.77204 11.5886 5.83014 11.6162 5.90469C11.7521 6.27299 11.8821 6.64395 12.001 7.01812C12.0429 7.1496 12.1046 7.19626 12.2437 7.19597C12.6545 7.19597 13.0633 7.208 13.4727 7.22532C13.5388 7.22737 13.6036 7.27374 13.6664 7.29957Z" fill="#A1A1A1"/>
<path d="M12.6454 14.8458C12.7505 15.1342 12.8271 15.4327 12.9368 15.7969C12.6666 15.6094 12.4599 15.465 12.2525 15.3221C11.8123 15.0186 11.942 15.0286 11.5026 15.3282C11.306 15.4618 11.1138 15.6009 10.9189 15.7364C10.8934 15.7471 10.8667 15.7549 10.8394 15.7596C10.9274 15.4662 10.9861 15.1803 11.0982 14.9179C11.2156 14.643 11.1434 14.4851 10.9025 14.3357C10.6615 14.1863 10.4488 14.0011 10.2234 13.8312C10.2293 13.8121 10.2348 13.7928 10.2404 13.7725C10.5632 13.7725 10.8887 13.7643 11.2121 13.7758C11.4005 13.7822 11.4903 13.7083 11.5437 13.5292C11.6365 13.217 11.7536 12.9129 11.8812 12.5435C12.0048 12.9012 12.1183 13.2 12.2093 13.5055C12.268 13.6997 12.3631 13.7878 12.5753 13.7769C12.8979 13.7591 13.2214 13.7756 13.5405 13.8262C13.2899 14.017 13.0489 14.2215 12.7863 14.3935C12.5979 14.5188 12.5726 14.6456 12.6454 14.8458Z" fill="#A1A1A1"/>
<path d="M14.3139 10.6158C13.8965 11.6183 13.2427 12.4406 12.3626 13.1437C12.2557 12.8368 12.1665 12.5568 12.0588 12.283C12.0213 12.187 11.9388 12.1087 11.8766 12.0221C11.8202 12.1046 11.7448 12.18 11.7111 12.2707C11.5854 12.6084 11.4657 12.9489 11.3589 13.2934C11.3081 13.4592 11.2315 13.5302 11.0487 13.5256C10.6801 13.5156 10.3103 13.5256 9.94141 13.5402C9.85336 13.5437 9.76709 13.5933 9.68022 13.6218C9.7348 13.7028 9.77618 13.7979 9.84661 13.8619C9.98044 13.981 10.1307 14.0814 10.2742 14.1897C10.2742 14.2161 10.2771 14.2422 10.2789 14.2683L8.64396 14.5691C8.59965 13.618 8.15944 13.0079 7.34534 12.7203C7.34534 12.452 7.38496 12.1955 7.33801 11.9572C7.20917 11.304 6.60432 10.9072 5.94577 10.997C5.8724 11.007 5.75501 10.9638 5.71451 10.9057C4.85434 9.67988 3.41926 9.47973 2.27735 10.4338C2.2582 10.4472 2.23798 10.459 2.21689 10.469C0.834048 7.58301 2.12064 3.43153 5.52728 1.93188C4.55881 3.28568 4.13503 4.75392 4.32051 6.37859C4.50599 8.00326 5.22617 9.34267 6.45758 10.408C8.51366 12.1858 11.7571 12.5186 14.3139 10.6158Z" fill="#A1A1A1"/>
</svg>
