<svg width="21" height="20" viewBox="0 0 21 20" fill="none" xmlns="http://www.w3.org/2000/svg">
<path d="M13.701 0.673912C13.5952 0.687668 13.4895 0.71174 13.3837 0.713359C12.9817 0.71882 12.5795 0.713359 12.1775 0.718618C10.9516 0.736015 9.92895 1.6273 9.81758 2.77287C9.69565 4.01553 10.4986 5.08645 11.7427 5.32515C11.9382 5.36278 12.1425 5.36683 12.3431 5.36804C13.109 5.37269 13.8768 5.36804 14.6437 5.37026C15.0356 5.37026 15.053 5.38503 15.1927 5.74592C15.6448 6.91333 16.6049 7.53678 17.8279 7.44515C18.2606 7.41249 18.6767 7.26789 19.0333 7.02621C19.224 6.89937 19.4059 6.75898 19.5997 6.63821C19.84 6.48892 20.0009 6.53323 20.0721 6.80409C20.217 7.35169 20.3731 7.90192 20.4447 8.46084C21.0618 13.264 17.8571 17.5032 13.2537 18.8136C11.5183 19.3076 9.76541 19.3396 7.99571 19.0036C7.84274 18.9744 7.64711 19.0001 7.5107 19.0719C6.59738 19.552 5.64577 19.9309 4.6037 19.9869C3.96198 20.0213 3.31012 19.9851 2.67067 19.9137C2.12666 19.853 1.9033 19.2382 2.2403 18.8035C2.61419 18.3224 2.89482 17.7785 3.06833 17.1987C3.18984 16.798 3.09793 16.4796 2.80254 16.1863C2.19932 15.5875 1.66628 14.9307 1.26675 14.1856C-0.589477 10.7243 -0.420766 7.34643 1.87245 4.14925C3.52582 1.84315 5.8828 0.556585 8.71734 0.123686C10.2978 -0.117646 11.8638 0.00635727 13.3976 0.463329C13.506 0.495493 13.6093 0.544245 13.7149 0.584703C13.7089 0.615451 13.7043 0.64458 13.701 0.673912ZM6.46945 10.9486C7.00229 10.947 7.42003 10.542 7.42168 10.0251C7.42355 9.49919 6.99753 9.09097 6.45331 9.09603C5.92171 9.10089 5.51143 9.50931 5.51494 10.03C5.51846 10.5507 5.93537 10.95 6.46945 10.9486ZM14.0943 9.09583C13.564 9.09199 13.1351 9.49555 13.1255 10.0061C13.116 10.5242 13.5485 10.9484 14.0856 10.9482C14.2113 10.9505 14.3361 10.9283 14.4529 10.8831C14.5697 10.8378 14.6762 10.7703 14.766 10.6845C14.8559 10.5987 14.9274 10.4963 14.9765 10.3832C15.0255 10.2702 15.051 10.1487 15.0516 10.0259C15.0522 9.90313 15.0278 9.78145 14.9798 9.66796C14.9319 9.55446 14.8613 9.45142 14.7722 9.3648C14.6832 9.27819 14.5774 9.20974 14.461 9.16342C14.3446 9.11711 14.22 9.09386 14.0943 9.09502V9.09583ZM10.2838 9.09583C9.75093 9.09259 9.32615 9.49555 9.32118 10.0092C9.31865 10.1311 9.34095 10.2524 9.38677 10.3658C9.43259 10.4793 9.50102 10.5827 9.58809 10.6701C9.67517 10.7575 9.77914 10.8271 9.89398 10.875C10.0088 10.9228 10.1322 10.9478 10.2571 10.9486C10.7978 10.9565 11.2335 10.544 11.2354 10.0245C11.2376 9.51437 10.811 9.09886 10.2836 9.09482L10.2838 9.09583Z" fill="black"/>
<path d="M16.4528 2.11459C16.4725 1.70617 16.4591 1.32566 16.5149 0.954058C16.6371 0.150969 17.4562 -0.255229 18.1594 0.17322C18.9936 0.681372 19.7668 1.28217 20.3744 2.04966C20.9033 2.71721 20.8938 3.35301 20.3744 4.02926C19.8718 4.68266 19.1978 5.15703 18.548 5.65446C18.3971 5.77016 18.2335 5.879 18.0596 5.95587C17.3744 6.2593 16.635 5.88304 16.5209 5.15784C16.4615 4.77996 16.4725 4.39136 16.4499 3.97282H16.2015C14.8916 3.97282 13.5817 3.97464 12.2717 3.97282C11.7035 3.97141 11.2965 3.65139 11.2408 3.17479C11.1719 2.58512 11.5896 2.11904 12.203 2.11722C13.5278 2.11297 14.8527 2.11581 16.1775 2.1156L16.4528 2.11459Z" fill="black"/>
</svg>
