<svg width="16" height="15" viewBox="0 0 16 15" fill="none" xmlns="http://www.w3.org/2000/svg">
<path d="M7.03837 14.3144C5.48664 14.3144 3.93492 14.3176 2.38303 14.3134C1.23716 14.3103 0.314736 13.5887 0.0619636 12.5094C-0.00804866 12.2133 -0.0188528 11.9064 0.0301701 11.6062C0.0791931 11.306 0.187081 11.0183 0.34767 10.7597C0.508259 10.501 0.718399 10.2765 0.966085 10.0988C1.21377 9.92117 1.49415 9.79391 1.79119 9.72432C2.15263 9.63982 2.16195 9.62867 2.19942 9.26347C2.25526 8.71533 2.48385 8.19892 2.85238 7.78832C3.22092 7.37772 3.71045 7.09404 4.25076 6.97798C5.45867 6.71503 6.66523 7.30296 7.20655 8.41444C7.24774 8.49894 7.30453 8.61402 7.37726 8.63498C7.47763 8.66388 7.61936 8.64968 7.71023 8.59712C9.09479 7.79676 10.8032 8.51871 11.1483 10.0696C11.2043 10.321 11.1982 10.5935 11.1789 10.8527C11.1543 11.1816 11.2621 11.307 11.5857 11.2551C12.4681 11.1133 13.2758 11.7376 13.3723 12.6356C13.4643 13.4929 12.7779 14.2968 11.9 14.3059C10.2795 14.3228 8.65876 14.3108 7.03803 14.3108L7.03837 14.3144ZM7.74464 10.6649C7.73227 10.6257 7.71311 10.5608 7.69107 10.496C7.53544 10.0454 7.24249 9.71401 6.81035 9.51173C6.12392 9.19064 5.2827 9.38041 4.82683 9.95331C4.71595 10.0927 4.71816 10.2489 4.83225 10.3537C4.94635 10.4584 5.10656 10.4478 5.23133 10.3246C5.25981 10.2964 5.28389 10.2636 5.31271 10.2359C5.59227 9.96767 5.92302 9.85343 6.30684 9.92542C6.84934 10.0268 7.16467 10.4135 7.22791 11.0349C7.25605 11.3119 7.4014 11.4033 7.66395 11.3092C8.42294 11.0359 9.13413 11.4971 9.20194 12.3062C9.21889 12.5068 9.33333 12.6273 9.49591 12.6138C9.65849 12.6003 9.75987 12.4651 9.75173 12.268C9.72155 11.539 9.20617 10.896 8.49194 10.732C8.25663 10.6793 8.00623 10.6869 7.74464 10.6649Z" fill="#A1A1A1"/>
<path d="M11.4547 9.24775C10.6749 7.82397 9.00159 7.35146 7.62143 8.01189C7.36374 7.55933 7.0201 7.18094 6.5805 6.89331C6.14091 6.60569 5.65791 6.44345 5.10693 6.3794C5.57433 5.24055 6.36995 4.50204 7.54429 4.19802C8.92327 3.84093 10.3692 4.36701 11.2113 5.50739C12.0203 6.60264 12.1249 8.14675 11.4547 9.24775ZM11.2065 6.65013C11.2028 6.62804 11.1978 6.6062 11.1914 6.58473C10.9315 5.8656 10.4632 5.32538 9.78669 4.96407C9.72532 4.9306 9.65316 4.92264 9.58593 4.94191C9.51869 4.96118 9.4618 5.00614 9.42763 5.06699C9.35032 5.19762 9.38728 5.34465 9.5229 5.44064C9.55545 5.46362 9.59071 5.48322 9.62462 5.5035C9.97393 5.70495 10.2646 5.99353 10.4682 6.34087C10.5491 6.47793 10.6069 6.62816 10.6784 6.77113C10.7422 6.89855 10.8463 6.95703 10.9885 6.92509C11.1307 6.89315 11.1948 6.79124 11.2065 6.65013ZM8.51486 5.16298V5.16737C8.55487 5.16991 8.59489 5.17498 8.63473 5.1743C8.79832 5.17193 8.91666 5.06919 8.92751 4.92199C8.93785 4.78274 8.84274 4.66089 8.68863 4.63707C8.58162 4.61877 8.47276 4.61366 8.36449 4.62186C8.33001 4.62464 8.29643 4.63427 8.26573 4.65017C8.23503 4.66607 8.20783 4.68793 8.18572 4.71446C8.16361 4.74098 8.14704 4.77165 8.13698 4.80465C8.12692 4.83764 8.12358 4.87231 8.12715 4.90662C8.13952 5.05871 8.22649 5.14439 8.37788 5.16213C8.4236 5.16505 8.46911 5.16533 8.51486 5.16298Z" fill="#A1A1A1"/>
<path d="M8.12096 1.24236C8.12096 0.939183 8.11859 0.636175 8.12181 0.333167C8.12401 0.112629 8.22573 -0.00346989 8.40323 7.89979e-05C8.57429 0.00362789 8.67058 0.115502 8.6716 0.328942C8.67408 0.952308 8.67408 1.57562 8.6716 2.19887C8.67058 2.40826 8.56903 2.52267 8.39882 2.52385C8.22861 2.52503 8.12469 2.40978 8.12232 2.20276C8.11909 1.88268 8.12181 1.56244 8.12096 1.24236Z" fill="#A1A1A1"/>
<path d="M3.20102 2.10034C3.29596 2.15645 3.37412 2.18484 3.42769 2.23706C3.88588 2.68771 4.3413 3.14073 4.79395 3.59611C4.92754 3.73131 4.93076 3.89219 4.8148 4.00643C4.69884 4.12068 4.54592 4.11966 4.41572 3.99156C3.95391 3.5368 3.49635 3.07798 3.03793 2.61983C2.94452 2.52655 2.89688 2.40977 2.97334 2.29452C3.02454 2.21729 3.11846 2.16828 3.20102 2.10034Z" fill="#A1A1A1"/>
<path d="M13.8944 2.38935C13.8307 2.49311 13.7986 2.57525 13.7418 2.63338C13.2943 3.08595 12.8436 3.53553 12.3898 3.98213C12.2508 4.11901 12.0948 4.12189 11.978 4.0041C11.8612 3.88631 11.869 3.72931 12.0036 3.59412C12.4568 3.13896 12.9115 2.68526 13.3677 2.23303C13.4567 2.14431 13.5677 2.09463 13.6779 2.16087C13.7612 2.2114 13.8181 2.30688 13.8944 2.38935Z" fill="#A1A1A1"/>
<path d="M14.7266 7.8472C14.4108 7.8472 14.0949 7.84906 13.7791 7.8472C13.5862 7.84568 13.4653 7.74293 13.4592 7.58391C13.4531 7.42184 13.5831 7.29982 13.7781 7.29898C14.4155 7.2965 15.053 7.2965 15.6904 7.29898C15.8786 7.29898 15.9998 7.41457 16 7.5741C16.0001 7.73363 15.8813 7.8445 15.6913 7.84652C15.3696 7.85007 15.048 7.8472 14.7266 7.8472Z" fill="#A1A1A1"/>
</svg>
