<svg width="16" height="16" viewBox="0 0 16 16" fill="none" xmlns="http://www.w3.org/2000/svg">
<path d="M4.94671 4.09839C3.85309 5.17453 3.30459 6.46113 3.38938 7.99252C3.4584 9.23629 3.94098 10.3056 4.82163 11.1787C5.79608 12.1448 6.97843 12.6187 8.34672 12.5909C9.71501 12.5631 10.8613 12.0112 11.8214 11.0159C11.4408 13.5808 9.07834 16.0931 5.72705 15.9975C2.71017 15.9124 0.128813 13.3443 0.00542137 10.3048C-0.130929 6.94503 2.32619 4.50201 4.94671 4.09839Z" fill="#AABFFF"/>
<path d="M8.62848 5.79969C8.30817 4.85062 8.22732 3.90893 8.63919 2.96809C8.99218 2.16112 9.81451 1.73651 10.6464 1.93194C11.4679 2.12482 12.013 2.86994 11.9761 3.74725C11.9736 3.80653 11.9761 3.8661 11.9761 3.91488C12.164 3.78583 12.3423 3.62897 12.5494 3.52743C12.8741 3.36524 13.2415 3.31082 13.5988 3.37197C13.9562 3.43313 14.2851 3.60671 14.5383 3.8678C15.0637 4.40246 15.191 5.20092 14.8572 5.89187C14.6163 6.3891 14.2639 6.79187 13.8213 7.11692C13.2159 7.56167 12.53 7.81071 11.8028 7.96785C11.7589 7.70123 11.7327 7.43886 11.671 7.18557C11.4966 6.47221 11.1256 5.90917 10.4174 5.63092C9.85394 5.40996 9.29953 5.44967 8.76596 5.74126C8.73244 5.75941 8.69919 5.77898 8.66567 5.79799C8.66144 5.80167 8.65524 5.79969 8.62848 5.79969ZM14.2969 5.11554C14.2786 4.74057 14.0507 4.36786 13.736 4.22547C13.5974 4.16251 13.4624 4.19966 13.3926 4.31964C13.3227 4.43962 13.3548 4.57691 13.4793 4.6671C13.7656 4.87445 13.8073 4.99074 13.7146 5.32459C13.6732 5.4735 13.727 5.5949 13.8594 5.64964C13.9918 5.70438 14.1233 5.65446 14.1825 5.50782C14.2335 5.38302 14.2597 5.24715 14.2969 5.11554Z" fill="#AABFFF"/>
<path d="M8.29174 7.71623C8.23821 6.91607 8.56557 6.34992 9.20112 6.10315C9.90878 5.8283 10.7007 6.15988 11.0185 6.86615C11.3565 7.61837 11.3182 8.38137 11.0692 9.14493C10.837 9.85716 10.4553 10.4868 9.98485 11.0635C9.95104 11.1049 9.88822 11.1469 9.83892 11.1469C8.77431 11.1469 7.74916 10.9792 6.8426 10.368C6.37523 10.0529 6.01604 9.63875 5.83265 9.09558C5.6239 8.47695 5.87265 7.79423 6.41664 7.44166C6.68426 7.26834 7.00152 7.18955 7.31849 7.21769C7.63546 7.24583 7.93414 7.37931 8.1675 7.5971C8.20244 7.62972 8.2368 7.66318 8.29174 7.71623Z" fill="#AABFFF"/>
<path d="M1.03541 1.3441C1.01203 0.658823 1.32699 0.178049 1.88056 0.0393482C2.46089 -0.107011 2.94488 0.156778 3.25758 0.799795C3.5345 0.698818 3.81086 0.697684 4.07145 0.860779C4.33204 1.02387 4.45487 1.26213 4.49402 1.56988C4.52952 1.57329 4.56586 1.57612 4.60164 1.58038C4.96562 1.62321 5.20169 1.89522 5.18733 2.25431C5.17352 2.59468 4.90786 2.85705 4.5498 2.85932C3.68212 2.86471 2.81472 2.86159 1.94732 2.86187C1.71124 2.86187 1.47517 2.86443 1.23909 2.86187C0.849759 2.85535 0.54466 2.61426 0.472822 2.2614C0.395914 1.88444 0.583821 1.54237 0.954558 1.38211C0.979631 1.36963 1.00414 1.35829 1.03541 1.3441Z" fill="#AABFFF"/>
</svg>
