<svg width="18" height="16" viewBox="0 0 18 16" fill="none" xmlns="http://www.w3.org/2000/svg">
<path d="M1.45049 16L8.82178 2.593L16.2089 16H1.45049ZM8.82414 4.31322L2.91921 15.0659H14.7338C12.7628 11.4785 10.8002 7.90806 8.82414 4.31322Z" fill="#AABFFF"/>
<path d="M13.4659 5.07202C13.4923 5.01582 13.5054 4.94608 13.5466 4.90545C13.8392 4.61835 14.1356 4.33543 14.4361 4.05668C14.4732 4.02282 14.5448 4.02553 14.6005 4.01097C14.5778 4.05972 14.5667 4.12033 14.5306 4.1552C14.244 4.4318 13.953 4.70401 13.662 4.97655C13.6144 5.0209 13.5608 5.05882 13.5095 5.09944L13.4659 5.07202Z" fill="#AABFFF"/>
<path d="M3.98455 4.99744C3.93257 4.9795 3.86776 4.97543 3.83063 4.94124C3.53729 4.67039 3.24698 4.39954 2.96276 4.11854C2.93339 4.08976 2.94757 4.01697 2.94149 3.96348L2.99787 3.95129L4.01358 4.92905C4.00379 4.95207 3.994 4.97476 3.98455 4.99744Z" fill="#AABFFF"/>
<path d="M2.72005 5.74099C2.7663 5.75284 2.81896 5.75453 2.85811 5.77823C3.18825 5.97843 3.51658 6.18157 3.84311 6.38764C3.87248 6.40626 3.88362 6.45535 3.9032 6.48921C3.86471 6.49598 3.81442 6.52306 3.78944 6.50614C3.43736 6.28844 3.08867 6.06601 2.7403 5.84188C2.72376 5.83139 2.716 5.80802 2.70418 5.78839L2.72005 5.74099Z" fill="#AABFFF"/>
<path d="M14.8587 5.79544C14.8218 5.83396 14.7817 5.86929 14.7389 5.90107C14.422 6.10105 14.1036 6.29865 13.7836 6.49389C13.7498 6.51522 13.6965 6.50879 13.6523 6.51556C13.6755 6.47324 13.686 6.41399 13.7231 6.39097C14.0435 6.1858 14.3672 5.98469 14.6919 5.78765C14.7366 5.76669 14.7835 5.7509 14.8317 5.74059L14.8587 5.79544Z" fill="#AABFFF"/>
<path d="M4.7687 3.73319C4.79543 3.75336 4.82018 3.77604 4.84263 3.80091C5.0212 4.05347 5.19977 4.30638 5.37293 4.56267C5.38947 4.58704 5.3699 4.63613 5.36686 4.67371C5.33006 4.66119 5.2774 4.66051 5.25918 4.63478C5.07959 4.38323 4.9044 4.12694 4.73157 3.87166C4.71466 3.83891 4.70696 3.80216 4.70929 3.76535C4.70929 3.75689 4.74406 3.74674 4.7687 3.73319Z" fill="#AABFFF"/>
<path d="M12.1204 4.61388C12.3061 4.35488 12.4917 4.09419 12.6797 3.83823C12.7071 3.80099 12.7631 3.78474 12.806 3.75901L12.8495 3.80675C12.7844 3.90832 12.7209 4.00988 12.6531 4.10671C12.5322 4.28209 12.4124 4.45814 12.2818 4.62708C12.2568 4.66094 12.1916 4.66094 12.1467 4.67787C12.1376 4.65654 12.1288 4.63521 12.1204 4.61388Z" fill="#AABFFF"/>
<path d="M5.84889 2.58926C5.83471 2.60653 5.81885 2.63937 5.79353 2.65088C5.78071 2.65211 5.76779 2.65006 5.75598 2.6449C5.74417 2.63975 5.73386 2.63167 5.72602 2.62142C5.61496 2.37157 5.50627 2.12035 5.40331 1.86711C5.39521 1.84713 5.42829 1.79364 5.45428 1.78145C5.47044 1.77873 5.48702 1.78026 5.5024 1.7859C5.51779 1.79154 5.53145 1.80109 5.54205 1.81362C5.645 2.05501 5.74188 2.29911 5.84011 2.54254C5.84413 2.55789 5.84706 2.5735 5.84889 2.58926Z" fill="#AABFFF"/>
<path d="M11.7349 2.67829C11.7167 2.62175 11.687 2.5801 11.6971 2.55336C11.7869 2.3123 11.8811 2.07294 11.9813 1.83629C11.9921 1.81056 12.0488 1.79295 12.0826 1.79397C12.0978 1.79397 12.1309 1.85965 12.1218 1.88199C12.0242 2.12576 11.9192 2.36715 11.8159 2.60787C11.8061 2.62886 11.7781 2.64138 11.7349 2.67829Z" fill="#AABFFF"/>
<path d="M2.72579 7.2255C2.98808 7.31556 3.25137 7.40358 3.51163 7.49872C3.54033 7.50922 3.55349 7.56203 3.57374 7.59521C3.53661 7.60638 3.4934 7.63584 3.46302 7.62602C3.22504 7.54747 2.98774 7.46486 2.75415 7.37413C2.72039 7.3616 2.70723 7.29863 2.68461 7.25868L2.72579 7.2255Z" fill="#AABFFF"/>
<path d="M6.33464 3.74479L6.27017 3.8318C6.24587 3.81352 6.20941 3.79998 6.19895 3.7756C6.10274 3.54809 6.00856 3.31956 5.92113 3.08866C5.91134 3.06225 5.94274 3.01519 5.96468 2.98506C5.97876 2.98444 5.99281 2.9867 6.00598 2.9917C6.01916 2.99671 6.03118 3.00436 6.04131 3.01418C6.14088 3.25253 6.23641 3.49324 6.33464 3.74479Z" fill="#AABFFF"/>
<path d="M11.6252 3.0416C11.6006 3.11236 11.582 3.17127 11.5594 3.22815C11.4888 3.40555 11.42 3.58364 11.3427 3.75766C11.3302 3.7861 11.2779 3.79693 11.2441 3.81589C11.2353 3.78203 11.2104 3.74208 11.2205 3.71432C11.3022 3.48726 11.3884 3.26155 11.4791 3.0372C11.4883 3.02279 11.5006 3.01061 11.515 3.00153C11.5295 2.99246 11.5458 2.98672 11.5628 2.98472C11.5823 2.9854 11.6053 3.02298 11.6252 3.0416Z" fill="#AABFFF"/>
<path d="M14.0648 7.64058C14.0452 7.62568 14.0057 7.61078 14.002 7.58945C14.0012 7.57421 14.0044 7.55903 14.0111 7.54534C14.0178 7.53166 14.0279 7.51992 14.0405 7.51124C14.2848 7.41713 14.5307 7.32684 14.778 7.2404C14.7956 7.2343 14.8422 7.26477 14.8489 7.2861C14.8504 7.30085 14.8481 7.31573 14.8422 7.32932C14.8363 7.3429 14.827 7.35472 14.8152 7.36363C14.5701 7.45843 14.3237 7.54646 14.0648 7.64058Z" fill="#AABFFF"/>
<path d="M2.37812 9.94117L2.2944 9.87549C2.33052 9.85145 2.36427 9.81083 2.40309 9.80575C2.62408 9.77731 2.84586 9.75474 3.06842 9.73804C3.10589 9.73499 3.1464 9.77189 3.18522 9.78882C3.15146 9.81557 3.12176 9.86195 3.08598 9.86635C2.86488 9.89479 2.64242 9.91409 2.37812 9.94117Z" fill="#AABFFF"/>
<path d="M15.5625 8.58854C15.5299 8.59642 15.4963 8.59871 15.4629 8.59531C15.4358 8.58424 15.414 8.56299 15.4022 8.53607C15.3975 8.52659 15.4272 8.48562 15.4444 8.48359C15.6878 8.45312 15.9318 8.42536 16.1765 8.40267C16.1958 8.40267 16.2187 8.44059 16.2403 8.46091C16.214 8.48156 16.19 8.51643 16.1613 8.52049C15.9625 8.54825 15.7624 8.56924 15.5629 8.59261L15.5625 8.58854Z" fill="#AABFFF"/>
<path d="M10.5494 1.23267C10.5072 1.43851 10.4735 1.62032 10.4296 1.79942C10.4225 1.82853 10.3702 1.84648 10.3388 1.8695C10.3246 1.83767 10.2939 1.80179 10.2983 1.77402C10.328 1.58646 10.3627 1.3998 10.4026 1.21404C10.408 1.18933 10.464 1.15141 10.4802 1.15852C10.5123 1.17206 10.5325 1.21269 10.5494 1.23267Z" fill="#AABFFF"/>
<path d="M7.47121 2.90957C7.45332 2.9265 7.42901 2.96441 7.39762 2.97186C7.3804 2.97592 7.33551 2.93191 7.33011 2.90415C7.29095 2.71828 7.25483 2.53173 7.22884 2.34316C7.22412 2.3093 7.26698 2.26833 7.28791 2.23075C7.31323 2.26088 7.35542 2.28729 7.36116 2.32115C7.39965 2.50668 7.43138 2.69458 7.47121 2.90957Z" fill="#AABFFF"/>
<path d="M8.71242 1.665C8.71242 1.43715 8.71039 1.20896 8.71512 0.981444C8.71512 0.954359 8.75428 0.927952 8.77554 0.901544C8.80018 0.929645 8.84575 0.957745 8.84643 0.986522C8.85116 1.18763 8.85014 1.38907 8.8417 1.59018C8.8417 1.62403 8.79478 1.65552 8.76947 1.68802L8.71242 1.665Z" fill="#AABFFF"/>
<path d="M10.2567 2.21083C10.2787 2.24875 10.3243 2.29039 10.3189 2.32391C10.2895 2.51215 10.2513 2.69904 10.2078 2.88457C10.2007 2.91605 10.1558 2.9384 10.1285 2.96481C10.1099 2.92858 10.0708 2.88863 10.0762 2.85613C10.1119 2.64724 10.1572 2.44004 10.199 2.23216L10.2567 2.21083Z" fill="#AABFFF"/>
<path d="M7.14275 1.17918C7.17651 1.37148 7.21296 1.5631 7.23963 1.75642C7.24435 1.79197 7.20587 1.83327 7.18899 1.87187C7.16199 1.84445 7.1171 1.82109 7.11001 1.78892C7.0722 1.61423 7.03844 1.43817 7.01684 1.26077C7.01279 1.22691 7.07119 1.18832 7.10055 1.15175L7.14275 1.17918Z" fill="#AABFFF"/>
<path d="M5.69092 5.00662C5.81278 5.18166 5.93734 5.35466 6.05346 5.53342C6.07473 5.56728 6.06325 5.62043 6.06662 5.66512C6.03017 5.6482 5.98055 5.64142 5.95894 5.61298C5.8435 5.46063 5.73143 5.30557 5.62712 5.14577C5.60619 5.11191 5.62408 5.05571 5.62408 5.01035L5.69092 5.00662Z" fill="#AABFFF"/>
<path d="M4.80651 7.13789C4.60228 7.01296 4.39738 6.88904 4.19519 6.76073C4.17628 6.74854 4.17527 6.70757 4.16616 6.68015C4.19991 6.6744 4.24076 6.65273 4.2627 6.66559C4.44228 6.77021 4.61984 6.87821 4.793 6.99332C4.82338 7.01363 4.82946 7.07085 4.84668 7.1108L4.80651 7.13789Z" fill="#AABFFF"/>
<path d="M1.95548 9.90861C1.92679 9.93569 1.9008 9.98275 1.86873 9.98715C1.67024 10.0146 1.47041 10.0346 1.27023 10.0505C1.24256 10.0525 1.2115 10.0166 1.18213 10.0004C1.20374 9.98072 1.22331 9.94687 1.24728 9.94348C1.47513 9.91267 1.704 9.88694 1.93219 9.85985L1.95548 9.90861Z" fill="#AABFFF"/>
<path d="M4.61613 7.95041C4.57697 7.96158 4.53275 7.99104 4.50001 7.98122C4.31199 7.92603 4.12599 7.86272 3.94135 7.79738C3.91772 7.78892 3.90422 7.751 3.88633 7.72662C3.91603 7.70868 3.95384 7.6694 3.97443 7.67617C4.19013 7.74389 4.4038 7.82108 4.61782 7.89522C4.61613 7.91351 4.61613 7.93213 4.61613 7.95041Z" fill="#AABFFF"/>
<path d="M14.4 8.71729L14.3355 8.655C14.3625 8.63333 14.3875 8.5971 14.4172 8.5927C14.599 8.56629 14.7816 8.54474 14.965 8.52804C14.9944 8.52533 15.0268 8.55377 15.0579 8.56799C15.0319 8.59643 15.0089 8.64586 14.9795 8.65026C14.7976 8.677 14.6143 8.69393 14.4 8.71729Z" fill="#AABFFF"/>
<path d="M5.57141 6.47026C5.52112 6.47026 5.47453 6.48481 5.45496 6.46789C5.29833 6.33246 5.14609 6.19399 4.9952 6.05281C4.98102 6.03961 4.97562 5.99051 4.98474 5.9851C5.00701 5.96919 5.05394 5.95124 5.06676 5.96377C5.22609 6.10393 5.38103 6.24884 5.53597 6.39374C5.54711 6.40288 5.54981 6.42218 5.57141 6.47026Z" fill="#AABFFF"/>
<path d="M1.38636 8.44434C1.42344 8.4312 1.4622 8.42345 1.50147 8.42132C1.70401 8.43655 1.90418 8.45518 2.10503 8.4782C2.13507 8.48158 2.1614 8.51578 2.18941 8.53575C2.16545 8.55336 2.13979 8.58823 2.11752 8.5862C1.87515 8.56521 1.63278 8.5388 1.39075 8.51375C1.38906 8.49072 1.38771 8.46736 1.38636 8.44434Z" fill="#AABFFF"/>
<path d="M4.05983 2.7075C4.11586 2.75287 4.14692 2.7681 4.16312 2.79316C4.24852 2.92452 4.3319 3.05622 4.41055 3.19232C4.42709 3.22144 4.41055 3.2685 4.41055 3.30709C4.37342 3.29355 4.32076 3.29152 4.30186 3.26477C4.20869 3.1324 4.12093 2.99393 4.03991 2.85478C4.0254 2.82803 4.04936 2.77826 4.05983 2.7075Z" fill="#AABFFF"/>
<path d="M15.2493 7.20626C15.2304 7.19238 15.1939 7.17748 15.1946 7.1636C15.1946 7.13584 15.2101 7.09183 15.2304 7.08404C15.4133 7.01295 15.598 6.94636 15.7843 6.88429C15.799 6.88367 15.8136 6.88683 15.8267 6.89347C15.8398 6.90011 15.851 6.91 15.8592 6.92221C15.8612 6.9365 15.8595 6.95107 15.8541 6.96444C15.8487 6.97782 15.8399 6.98953 15.8285 6.99839C15.6412 7.07016 15.4518 7.13584 15.2493 7.20626Z" fill="#AABFFF"/>
<path d="M2.36189 7.16247C2.31598 7.16992 2.26501 7.19396 2.2245 7.18211C2.06923 7.13641 1.9153 7.08325 1.76475 7.02333C1.73099 7.00945 1.71074 6.95561 1.68441 6.92176C1.72289 6.91363 1.76644 6.88993 1.79884 6.90009C1.98889 6.96035 2.17623 7.0284 2.36425 7.09409L2.36189 7.16247Z" fill="#AABFFF"/>
<path d="M13.3788 6.61042C13.3984 6.77191 12.8941 7.09897 12.7078 7.02753L13.3788 6.61042Z" fill="#AABFFF"/>
<path d="M13.0281 7.99617C13.0085 7.98296 12.9697 7.96671 12.9714 7.95622C12.9748 7.92981 12.9913 7.89121 13.0126 7.88309C13.1996 7.81064 13.3879 7.74157 13.578 7.67758C13.6047 7.66878 13.6428 7.69485 13.6759 7.70467C13.6631 7.73141 13.657 7.77543 13.6371 7.78254C13.4386 7.85431 13.2377 7.92202 13.0281 7.99617Z" fill="#AABFFF"/>
<path d="M2.56038 5.58489C2.4554 5.66682 2.21911 5.57134 1.98653 5.37904C1.9548 5.35263 1.94704 5.29745 1.92813 5.25547L1.97978 5.22161C2.16679 5.33841 2.35447 5.45691 2.56038 5.58489Z" fill="#AABFFF"/>
<path d="M11.9101 5.04279C11.9101 5.08647 11.927 5.14064 11.9071 5.17145C11.8169 5.31263 11.7197 5.44974 11.6175 5.58246C11.5925 5.61632 11.5385 5.62512 11.498 5.64543C11.503 5.60176 11.4942 5.54894 11.5158 5.5161C11.6256 5.35055 11.7434 5.19007 11.8581 5.0279L11.9101 5.04279Z" fill="#AABFFF"/>
<path d="M2.62081 8.52324C2.81659 8.54558 2.97828 8.56082 3.13896 8.58485C3.17271 8.58993 3.20309 8.62751 3.23482 8.64986C3.19634 8.67051 3.15651 8.71113 3.12005 8.70843C2.9587 8.6959 2.79735 8.67457 2.63768 8.64783C2.5992 8.64139 2.5668 8.59975 2.53169 8.57436L2.62081 8.52324Z" fill="#AABFFF"/>
<path d="M4.66102 5.69392C4.4703 5.52126 4.25595 5.40885 4.12093 5.15595C4.36397 5.21757 4.68971 5.54123 4.66102 5.69392Z" fill="#AABFFF"/>
<path d="M15.6206 5.2924C15.6016 5.31932 15.58 5.34427 15.5561 5.36688C15.4099 5.461 15.2638 5.5558 15.1142 5.6445C15.0913 5.65804 15.0494 5.63942 15.0167 5.63603C15.0251 5.60624 15.0238 5.56189 15.0433 5.54869C15.1929 5.44949 15.3451 5.35368 15.5007 5.26396C15.5213 5.25143 15.5656 5.27852 15.6206 5.2924Z" fill="#AABFFF"/>
<path d="M12.5248 5.93088C12.5457 5.99453 12.5717 6.04023 12.5623 6.04937C12.4038 6.20928 12.2296 6.35276 12.0424 6.47765C12.1302 6.24405 12.3425 6.12724 12.5248 5.93088Z" fill="#AABFFF"/>
<path d="M16.7683 8.47412L16.5722 8.40302C16.6363 8.37526 16.6977 8.33531 16.7646 8.3221C16.8799 8.30218 16.9966 8.29086 17.1136 8.28825C17.1474 8.28825 17.1787 8.3221 17.2115 8.34072C17.1831 8.3651 17.1575 8.40641 17.1261 8.41148C17.0106 8.4301 16.8935 8.43654 16.7767 8.44771C16.7747 8.45719 16.7717 8.46565 16.7683 8.47412Z" fill="#AABFFF"/>
<path d="M13.3039 8.71822C13.5064 8.69385 13.709 8.66845 13.9115 8.64746C13.924 8.64811 13.9362 8.65189 13.947 8.65845C13.9577 8.66501 13.9666 8.67415 13.9729 8.68504C13.9758 8.69773 13.9757 8.71093 13.9726 8.72356C13.9695 8.7362 13.9635 8.74793 13.955 8.75783C13.9091 8.80286 13.3751 8.80591 13.3039 8.71822Z" fill="#AABFFF"/>
<path d="M6.52434 4.14428C6.603 4.38771 6.66882 4.59118 6.73431 4.79466L6.65768 4.8214C6.57903 4.63452 6.49768 4.44899 6.42611 4.25906C6.41936 4.24145 6.47506 4.20015 6.52434 4.14428Z" fill="#AABFFF"/>
<path d="M3.37694 1.76954C3.55011 1.89278 3.80328 2.29262 3.77088 2.45377C3.61121 2.21678 3.47045 2.00857 3.33002 1.80001L3.37694 1.76954Z" fill="#AABFFF"/>
<path d="M10.8164 4.76897C10.8785 4.57024 10.9406 4.3715 11.0048 4.16532C11.1344 4.24556 11.0669 4.51471 10.8772 4.78793L10.8164 4.76897Z" fill="#AABFFF"/>
<path d="M13.1196 3.33209C13.1142 3.29011 13.0902 3.23729 13.1071 3.20818C13.1722 3.09673 13.2441 2.98942 13.3225 2.88688C13.3393 2.8642 13.3842 2.8625 13.416 2.85133C13.42 2.88993 13.4413 2.93936 13.4251 2.96509C13.3451 3.09239 13.2563 3.21359 13.1682 3.33751L13.1196 3.33209Z" fill="#AABFFF"/>
<path d="M13.6675 2.3936C13.8221 2.17466 13.9769 1.95573 14.1319 1.73679L14.1917 1.77911L13.735 2.441L13.6675 2.3936Z" fill="#AABFFF"/>
<path d="M3.55079 8.76085C3.66488 8.62982 4.02134 8.63795 4.25291 8.74696C4.00852 8.84007 3.80159 8.71175 3.55079 8.76085Z" fill="#AABFFF"/>
<path d="M15.6061 9.8836L16.3581 9.96689L16.3511 10.037L15.5946 9.96316C15.5983 9.93675 15.6023 9.91001 15.6061 9.8836Z" fill="#AABFFF"/>
<path d="M10.703 0.480075C10.6856 0.565553 10.663 0.649895 10.6355 0.732641C10.6237 0.762096 10.5768 0.777331 10.546 0.800353C10.5319 0.769206 10.5028 0.736365 10.5062 0.707249C10.5146 0.630154 10.5322 0.554344 10.5585 0.48143C10.5703 0.450282 10.6152 0.431322 10.6453 0.406946L10.703 0.480075Z" fill="#AABFFF"/>
<path d="M0.367602 8.30084L0.967783 8.35636L0.961706 8.43491L0.358149 8.38886C0.362875 8.35873 0.362876 8.32928 0.367602 8.30084Z" fill="#AABFFF"/>
<path d="M3.94101 9.63706C3.89746 9.76537 3.61864 9.85983 3.55045 9.78907C3.53695 9.77519 3.5248 9.73998 3.53256 9.72949C3.5525 9.70514 3.57781 9.68579 3.60648 9.67295C3.62835 9.66634 3.65121 9.6637 3.674 9.66516L3.94101 9.63706Z" fill="#AABFFF"/>
<path d="M5.23791 1.44697C5.19234 1.34743 5.14204 1.24959 5.10525 1.14701C5.09883 1.12839 5.14778 1.08979 5.17276 1.06067C5.22884 1.14549 5.27946 1.23381 5.32432 1.32509C5.33749 1.35522 5.30002 1.40736 5.2855 1.44968L5.23791 1.44697Z" fill="#AABFFF"/>
<path d="M2.5857 3.65C2.30688 3.4858 2.26265 3.41301 2.36291 3.30298C2.4311 3.42554 2.61237 3.47158 2.5857 3.65Z" fill="#AABFFF"/>
<path d="M12.2885 1.44327C12.1359 1.38199 12.221 1.29769 12.2548 1.23471C12.2885 1.17174 12.3452 1.1196 12.3918 1.06306C12.3861 1.1359 12.3763 1.20836 12.3624 1.28008C12.3426 1.33656 12.3179 1.39116 12.2885 1.44327Z" fill="#AABFFF"/>
<path d="M15.2739 3.37913C15.1544 3.48747 15.0838 3.63136 14.9232 3.62628C15.0487 3.38556 15.1331 3.32936 15.2739 3.37913Z" fill="#AABFFF"/>
<path d="M7.03912 0.732287L6.98984 0.803046C6.96115 0.777654 6.91895 0.757679 6.90646 0.725855C6.88157 0.663275 6.86687 0.597088 6.86292 0.529828C6.86089 0.495972 6.89127 0.458392 6.90714 0.422166C6.93651 0.445526 6.9814 0.46347 6.99153 0.493601C7.01267 0.572013 7.02857 0.651752 7.03912 0.732287Z" fill="#AABFFF"/>
<path d="M13.6246 9.64726C13.7664 9.66046 13.8713 9.6652 13.9743 9.68111C14.001 9.68585 14.0205 9.7302 14.0418 9.75661C14.0124 9.7732 13.9777 9.80943 13.9537 9.80333C13.8491 9.77828 13.7032 9.84328 13.6246 9.64726Z" fill="#AABFFF"/>
<path d="M0.644063 10.1144L0.00607583 10.1848L0 10.1242L0.638325 10.0592L0.644063 10.1144Z" fill="#AABFFF"/>
<path d="M13.1942 5.38174L12.8877 5.68645L12.8313 5.63228L13.1388 5.32926L13.1942 5.38174Z" fill="#AABFFF"/>
<path d="M3.04074 1.33018L2.77677 0.935082L2.82943 0.901226L3.09711 1.29463L3.04074 1.33018Z" fill="#AABFFF"/>
<path d="M8.76102 0.488882V0.00338581L8.78668 0V0.487527L8.76102 0.488882Z" fill="#AABFFF"/>
<path d="M0.861111 6.59958L1.25403 6.7323L1.23175 6.80001L0.841532 6.66865L0.861111 6.59958Z" fill="#AABFFF"/>
<path d="M1.71311 5.03133C1.60948 5.19587 1.54433 5.10175 1.48256 5.06518C1.46669 5.05503 1.47851 5.00119 1.47783 4.96734L1.71311 5.03133Z" fill="#AABFFF"/>
<path d="M16.2991 6.73498L16.7095 6.58229C16.6542 6.69503 16.4705 6.7685 16.2991 6.73498Z" fill="#AABFFF"/>
<path d="M15.8039 5.07562C15.9051 5.03161 15.9598 4.89178 16.0854 5.03601C15.9939 5.08747 15.9359 5.20935 15.8039 5.07562Z" fill="#AABFFF"/>
<path d="M14.4486 9.74846L14.694 9.79552L14.6818 9.86831L14.43 9.83445C14.4361 9.80601 14.4425 9.77723 14.4486 9.74846Z" fill="#AABFFF"/>
<path d="M15.1774 9.91504L14.8398 9.88491L14.8472 9.80535L15.1828 9.85004C15.1817 9.87171 15.179 9.89202 15.1774 9.91504Z" fill="#AABFFF"/>
<path d="M7.61264 14.2781C8.31173 12.7065 8.99663 11.1667 9.69538 9.5978H7.13871V8.91018H10.4684C10.4535 9.17256 10.4974 9.42411 10.3803 9.68379C9.71091 11.1663 9.05739 12.6557 8.40253 14.1443C8.36 14.2405 8.31105 14.2838 8.20337 14.2798C8.01873 14.2723 7.83307 14.2781 7.61264 14.2781Z" fill="#AABFFF"/>
</svg>
