<svg width="17" height="28" viewBox="0 0 17 28" fill="none" xmlns="http://www.w3.org/2000/svg">
<path d="M16.5096 4.90251C16.2117 1.94001 13.8374 0.0347785 10.8566 0.0133886C9.0858 -0.000362067 7.31197 -0.0110589 5.54119 0.021026C2.8262 0.0714451 0.415255 2.08668 0.169271 4.7757C-0.036873 7.01109 -0.0547665 9.25986 0.11579 11.4982C0.335801 14.3263 2.4748 16.2789 5.29674 16.5402C5.83912 16.5906 6.39067 16.5402 6.95292 16.5402V22.2757H3.95987V24.9571H7.01557V27.86H9.68625V24.951H12.7022V22.2681H9.70611V16.5814C10.1522 16.5814 10.5525 16.589 10.9498 16.5814C13.8328 16.5157 16.2041 14.5952 16.4959 11.7458C16.7291 9.47086 16.7337 7.17832 16.5096 4.90251ZM13.9001 11.1132C13.8328 12.7404 12.6075 13.8343 10.9742 13.8771C10.0789 13.9 9.18358 13.8771 8.28826 13.8771C7.39141 13.8771 6.4961 13.9016 5.60078 13.8771C4.02098 13.8267 2.79717 12.6686 2.75133 11.0949C2.69939 9.22989 2.69939 7.36337 2.75133 5.49532C2.79564 3.90788 4.03473 2.72685 5.65425 2.69324C7.44489 2.65504 9.23707 2.65199 11.0277 2.69324C12.6182 2.73144 13.8374 3.86968 13.9016 5.46018C13.9765 7.33943 13.978 9.22938 13.9001 11.1132Z" fill="#0A090C"/>
</svg>
