<svg width="17" height="16" viewBox="0 0 17 16" fill="none" xmlns="http://www.w3.org/2000/svg">
<path d="M6.84445 9.88371C5.68278 10.9785 4.52111 12.0329 3.27023 12.9863C4.29015 11.7991 5.31013 10.6119 6.33017 9.42465L6.3219 9.41188L2.07762 11.0513L2.0697 11.0375C3.23047 10.316 4.39106 9.59446 5.57629 8.85803L0 8.06206V8.03076L5.50164 7.19917L5.50992 7.18119L1.98732 5.17696L1.99667 5.15069L6.28322 6.5802C5.21761 5.43437 4.18588 4.26221 3.18802 3.06372C4.43225 4.05307 5.65598 5.06435 6.861 6.13968C6.33934 4.68984 5.82615 3.26375 5.31313 1.83784L5.34443 1.82237C5.68476 2.38611 6.02707 2.94878 6.36507 3.51324C6.70306 4.07771 7.0362 4.64487 7.37096 5.20988C7.63322 3.47979 7.89711 1.7398 8.16099 0H8.18654C8.447 1.73962 8.70819 3.47907 8.96614 5.20574L11.0099 1.81841L11.0384 1.83244C10.5214 3.26189 10.0051 4.68936 9.48941 6.11485L13.1316 3.06948L13.1588 3.09844C12.1628 4.30364 11.1096 5.45775 10.0535 6.60431L14.3284 5.15034L14.3381 5.17696L10.8173 7.18802C10.8194 7.19468 10.8216 7.20115 10.8236 7.20781L16.3099 8.0259V8.05073L10.7955 8.86019L10.7907 8.8798L14.2899 11.0204L14.2832 11.0367L10.0343 9.41962L10.0199 9.44084L13.0633 12.9602L13.0404 12.9839C11.8333 11.9932 10.6644 10.9581 9.49553 9.89306C10.0258 11.3729 10.5507 12.8373 11.0756 14.3019C10.341 13.152 9.63475 11.9858 8.97153 10.7736C8.70801 12.529 8.44754 14.2633 8.18726 15.9978L8.15452 16C7.88937 14.2661 7.62441 12.5321 7.35585 10.7765C6.70108 11.9935 5.99667 13.155 5.25449 14.2973C5.78135 12.8346 6.30822 11.3719 6.84445 9.88371Z" fill="#AABFFF"/>
</svg>
