<svg width="17" height="14" viewBox="0 0 17 14" fill="none" xmlns="http://www.w3.org/2000/svg">
<path fill-rule="evenodd" clip-rule="evenodd" d="M8.3816 1.95532L11.8664 7.99108L13.1275 10.1755C13.2481 10.3843 13.2481 10.6232 13.1275 10.8319C13.007 11.0406 12.8001 11.16 12.5591 11.16H4.2041C3.9631 11.16 3.7562 11.0405 3.63575 10.8319C3.5153 10.6231 3.5153 10.3843 3.63575 10.1755L4.89698 7.99108L8.3816 1.95532Z" fill="#0A090C"/>
<path fill-rule="evenodd" clip-rule="evenodd" d="M1.52039 4.66162L9.4648 11.1591H3.48912C3.17795 11.1591 2.91582 10.9488 2.84838 10.6451L1.52039 4.66162Z" fill="#0A090C"/>
<path d="M9.70997 1.35771C9.70388 0.607841 9.09105 0.00489375 8.34118 0.0109903C7.59131 0.0170868 6.98836 0.629919 6.99445 1.37979C7.00055 2.12966 7.61338 2.73261 8.36325 2.72651C9.11312 2.72041 9.71607 2.10758 9.70997 1.35771Z" fill="#0A090C"/>
<path fill-rule="evenodd" clip-rule="evenodd" d="M15.127 4.66162L7.1825 11.1591H13.1582C13.4694 11.1591 13.7315 10.9488 13.7989 10.6451L15.127 4.66162Z" fill="#0A090C"/>
<path d="M16.424 4.31889C16.4179 3.56902 15.805 2.96608 15.0552 2.97217C14.3053 2.97827 13.7023 3.5911 13.7084 4.34097C13.7145 5.09084 14.3274 5.69379 15.0772 5.68769C15.8271 5.6816 16.4301 5.06876 16.424 4.31889Z" fill="#0A090C"/>
<path d="M2.72676 4.30083C2.72066 3.55096 2.10783 2.94801 1.35796 2.95411C0.60809 2.9602 0.00514263 3.57303 0.0112391 4.3229C0.0173356 5.07277 0.630168 5.67572 1.38004 5.66963C2.12991 5.66353 2.73286 5.0507 2.72676 4.30083Z" fill="#0A090C"/>
<path fill-rule="evenodd" clip-rule="evenodd" d="M3.27691 11.9602H13.3559C13.5366 11.9602 13.684 12.1076 13.684 12.2883V12.9245C13.684 13.1052 13.5366 13.2526 13.3559 13.2526H3.27691C3.09618 13.2526 2.94879 13.1052 2.94879 12.9245V12.2883C2.94879 12.1076 3.09618 11.9602 3.27691 11.9602Z" fill="#0A090C"/>
</svg>
