<svg width="16" height="16" viewBox="0 0 16 16" fill="none" xmlns="http://www.w3.org/2000/svg">
<path fill-rule="evenodd" clip-rule="evenodd" d="M0.41536 4.65819C4.76837e-08 5.41702 0 6.33239 0 8.16312V9.38C0 12.5006 9.53674e-08 14.061 0.937256 15.0305C1.87452 16 3.38301 16 6.4 16H9.6C12.617 16 14.1255 16 15.0627 15.0305C16 14.061 16 12.5006 16 9.38V8.16312C16 6.33239 16 5.41702 15.5846 4.65819C15.1693 3.89937 14.4105 3.42841 12.8928 2.4865L11.2928 1.4935C9.68848 0.497832 8.88632 0 8 0C7.11368 0 6.31151 0.497832 4.70722 1.4935L3.10722 2.4865C1.58956 3.42841 0.83072 3.89937 0.41536 4.65819ZM5.6 12.2C5.26863 12.2 5 12.4686 5 12.8C5 13.1314 5.26863 13.4 5.6 13.4H10.4C10.7314 13.4 11 13.1314 11 12.8C11 12.4686 10.7314 12.2 10.4 12.2H5.6Z" fill="#A1A1A1"/>
</svg>
