<svg width="12" height="16" viewBox="0 0 12 16" fill="none" xmlns="http://www.w3.org/2000/svg">
<path d="M2.87387 7.76839L3.65219 8.37018C3.55827 8.42497 3.44055 8.48325 3.33348 8.5561C2.87136 8.87029 2.87011 9.31878 3.32627 9.64342C3.69164 9.90346 4.11274 10.0048 4.54416 10.059C5.55135 10.1857 6.54602 10.134 7.50061 9.7565C7.73731 9.66196 7.95676 9.52816 8.14995 9.36059C8.45207 9.09675 8.39603 8.77306 8.0388 8.58587C7.73135 8.42465 7.39166 8.38918 7.05259 8.36828C6.46431 8.33217 5.87445 8.31982 5.28774 8.26882C4.63339 8.2115 3.99846 8.0696 3.44869 7.67211C3.41042 7.64457 3.37373 7.61486 3.33879 7.58311C2.88075 7.16534 2.89391 6.61012 3.40737 6.26172C3.7336 6.04001 4.10178 5.88165 4.45619 5.70491C4.79338 5.53705 5.1384 5.38438 5.41297 5.11548C5.47878 5.0483 5.5362 4.97321 5.58392 4.89187C5.66094 4.76518 5.67221 4.63849 5.58392 4.50673C5.45305 4.31163 5.47528 4.1162 5.60709 3.93282C5.72199 3.77255 5.82186 3.61102 5.74578 3.36683C5.91735 3.47641 5.9712 3.59899 5.90764 3.73962C5.79149 3.9968 5.87634 4.19095 6.04603 4.38574C6.29368 4.67238 6.29931 4.90106 6.08172 5.21493C5.83657 5.5684 5.4806 5.77744 5.10647 5.95988C4.88136 6.06978 4.65062 6.16924 4.42927 6.28643C4.31872 6.34569 4.21692 6.42031 4.12683 6.50814C3.88795 6.73966 3.90767 7.02472 4.19821 7.19037C4.37853 7.29506 4.57672 7.36447 4.78242 7.39497C5.45837 7.48492 6.10238 7.37122 6.68941 7.00318C6.77767 6.94712 6.85831 6.87962 6.92924 6.80237C7.14245 6.5718 7.10738 6.31683 6.83969 6.1553C6.60018 6.01087 6.33062 5.97571 6.05698 5.95988C6.00157 5.95671 5.94584 5.95988 5.88792 5.95988C5.97966 5.8316 6.06325 5.70871 6.15467 5.59184C6.16785 5.57752 6.18372 5.56599 6.20135 5.55795C6.21898 5.5499 6.23802 5.54548 6.25736 5.54496C6.64183 5.54845 7.01784 5.60419 7.36567 5.77713C7.48186 5.83684 7.58762 5.91537 7.67876 6.0096C7.91138 6.2462 7.93893 6.54804 7.76423 6.8331C7.53881 7.2005 7.17908 7.39339 6.81152 7.57519C6.76925 7.59609 6.72604 7.61446 6.68378 7.63473C6.67564 7.63885 6.67 7.6474 6.66249 7.70093C6.88728 7.70093 7.11302 7.69143 7.3375 7.70283C7.86097 7.72975 8.37631 7.8045 8.84844 8.05662C8.95427 8.11337 9.05324 8.18234 9.14336 8.26217C9.51906 8.59664 9.56852 9.05399 9.27454 9.46574C8.9912 9.86133 8.58575 10.0865 8.15401 10.2699C8.0006 10.3333 7.84437 10.3925 7.69128 10.4828C7.93454 10.5071 8.17812 10.5284 8.42076 10.5566C9.14962 10.6414 9.86095 10.7897 10.5234 11.1286C10.8199 11.2803 11.087 11.4735 11.2924 11.7398C11.7141 12.2872 11.7282 12.8753 11.4254 13.4768C11.1355 14.052 10.6762 14.4723 10.1518 14.8219C9.26076 15.4161 8.27173 15.7458 7.22165 15.8959C5.88823 16.086 4.56577 16.0226 3.26866 15.6486C2.32065 15.3762 1.44339 14.9556 0.728939 14.2445C0.432136 13.949 0.194819 13.6111 0.0714645 13.2031C-0.0750583 12.7208 0.00884914 12.2738 0.276222 11.8589C0.661001 11.2587 1.24114 10.9103 1.86543 10.6237C1.88155 10.6173 1.89881 10.6144 1.91611 10.6151C1.93341 10.6158 1.95037 10.6201 1.96593 10.6278C2.38703 10.8771 2.80593 11.1301 3.21826 11.3769C3.21012 11.3797 3.16723 11.3968 3.12434 11.4085C2.77566 11.5021 2.44727 11.6605 2.15597 11.8757C1.48316 12.3825 1.46562 13.0641 2.10744 13.6133C2.5874 14.025 3.1475 14.2784 3.74925 14.4298C5.41736 14.8536 7.05697 14.7744 8.65151 14.0938C9.06227 13.9183 9.44705 13.6903 9.72945 13.3286C9.82689 13.2056 9.90349 13.0671 9.95612 12.9187C10.0579 12.6203 9.94798 12.3686 9.72788 12.1652C9.43233 11.8922 9.06415 11.7576 8.68281 11.6987C7.92578 11.5817 7.16593 11.485 6.40326 11.4085C5.37916 11.3037 4.36196 11.1758 3.40048 10.7751C2.93806 10.5828 2.506 10.3371 2.17946 9.94463C1.66475 9.32765 1.72893 8.63718 2.3482 8.12788C2.52103 7.98282 2.72234 7.87006 2.87387 7.76839Z" fill="#AABFFF"/>
<path d="M5.80308 0.0148862C5.85568 0.331614 5.90828 0.648342 5.96839 1.00973L6.68535 0.48111L6.69944 0.490928L6.17377 1.23936L7.10238 1.39487V1.42084L6.16313 1.57921L6.70038 2.30008L6.6866 2.3156L5.97058 1.79775C5.91328 2.15533 5.86037 2.48695 5.80746 2.81856H5.78555C5.73264 2.49328 5.68004 2.16832 5.62055 1.80218L4.9158 2.30895L4.89639 2.29533C5.06608 2.06475 5.23546 1.83385 5.42112 1.58174L4.48845 1.42021L4.48375 1.39645L5.42018 1.23809L4.90203 0.501064L4.91361 0.484277C5.14279 0.652776 5.37228 0.820959 5.6287 1.00878C5.68348 0.650876 5.73358 0.32528 5.78336 0L5.80308 0.0148862Z" fill="#AABFFF"/>
</svg>
