<svg width="23" height="24" viewBox="0 0 23 24" fill="none" xmlns="http://www.w3.org/2000/svg">
<path d="M15.7127 18.2336C17.3611 16.2355 17.2561 13.5627 15.6602 11.5323C15.3394 11.1255 14.94 10.7861 14.5764 10.4094L20.4752 4.29731L20.6142 4.33256L20.5306 7.37401L22.8798 7.35689L22.8643 0.00100299L15.7817 -4.89773e-06L15.7554 2.55099L18.6557 2.53488L12.8357 8.56542C12.5315 8.25019 12.2583 7.95511 11.9765 7.67513C11.0223 6.71946 9.74532 6.18812 8.41824 6.19451C7.09115 6.20091 5.81904 6.74455 4.87345 7.70938C3.69252 8.9028 2.52035 10.1053 1.38317 11.3259C-0.445078 13.2988 -0.465486 16.5044 1.34915 18.4814C2.54206 19.7819 3.76639 21.0505 5.02215 22.2872C6.75223 23.9872 9.56117 24.2088 11.3894 22.6286C12.946 21.2908 14.3921 19.8207 15.7127 18.2336ZM10.3757 20.3072C9.21516 21.4755 7.68142 21.4876 6.51604 20.3264C5.40284 19.2199 4.31198 18.0896 3.24348 16.9355C2.12477 15.73 2.12865 14.1347 3.25028 12.9302C4.32138 11.7801 5.41093 10.6471 6.52188 9.54029C7.68822 8.37809 9.21613 8.40428 10.3805 9.57051C10.9355 10.1254 11.4711 10.7005 12.0163 11.2655C12.5616 11.8305 13.0932 12.3652 13.6171 12.9242C14.764 14.1528 14.7669 15.7269 13.6171 16.9526C12.5451 18.0876 11.4681 19.2075 10.3747 20.3083L10.3757 20.3072Z" fill="#0A090C"/>
</svg>
