<svg width="14" height="14" viewBox="0 0 14 14" fill="none" xmlns="http://www.w3.org/2000/svg">
<path fill-rule="evenodd" clip-rule="evenodd" d="M1.02513 1.02513C-8.34465e-08 2.05025 0 3.70017 0 7C0 10.2998 -8.34465e-08 11.9498 1.02513 12.9748C2.05025 14 3.70017 14 7 14C10.2998 14 11.9498 14 12.9748 12.9748C14 11.9498 14 10.2998 14 7C14 3.70017 14 2.05025 12.9748 1.02513C11.9498 -8.34465e-08 10.2998 0 7 0C3.70017 0 2.05025 -8.34465e-08 1.02513 1.02513ZM9.8 5.6C10.5732 5.6 11.2 4.9732 11.2 4.2C11.2 3.4268 10.5732 2.8 9.8 2.8C9.02678 2.8 8.4 3.4268 8.4 4.2C8.4 4.9732 9.02678 5.6 9.8 5.6ZM3.02464 7.77266C3.46151 7.36687 4.14394 7.38962 4.55278 7.82362L6.40605 9.79083C6.96563 10.3849 7.88172 10.4649 8.53587 9.97689C8.96511 9.65671 9.5627 9.69311 9.94987 10.063L11.5373 11.5796C11.747 11.7799 12.0793 11.7723 12.2796 11.5627C12.4799 11.353 12.4723 11.0207 12.2627 10.8204L10.6752 9.30377C9.91753 8.5799 8.74797 8.50871 7.90804 9.13528C7.68145 9.30433 7.36414 9.27661 7.17031 9.07088L5.31705 7.10367C4.51256 6.24967 3.16971 6.20487 2.31007 7.00329L1.74272 7.53025C1.53027 7.72758 1.51801 8.05973 1.71533 8.27218C1.91265 8.48463 2.24484 8.49695 2.45729 8.29962L3.02464 7.77266Z" fill="#AABFFF"/>
</svg>
