<svg width="16" height="16" viewBox="0 0 16 16" fill="none" xmlns="http://www.w3.org/2000/svg">
<path d="M7.87018 1.37233C11.4814 1.38219 14.4212 4.3656 14.4142 8.01104C14.4061 11.6672 11.4502 14.6486 7.84392 14.638C4.22732 14.627 1.29289 11.6315 1.30967 7.96447C1.3251 4.32944 4.27794 1.3622 7.87018 1.37233ZM1.82672 7.9894C1.82509 11.3787 4.52997 14.1115 7.88832 14.1137C11.1942 14.1159 13.8979 11.367 13.8952 7.99433C13.8931 4.52611 11.0691 1.87523 7.83147 1.8944C4.53159 1.91385 1.82672 4.63896 1.82672 7.9894Z" fill="#A1A1A1"/>
<path d="M7.8569 0C7.95706 0.0991546 8.06941 0.209813 8.16496 0.304038L7.85366 0.617114L7.55426 0.303216L7.8569 0Z" fill="#A1A1A1"/>
<path d="M15.4307 8.28157L15.1267 7.98027C15.2203 7.88604 15.3359 7.76991 15.4531 7.65158C15.475 7.72644 15.5159 7.79419 15.5717 7.84811C15.6275 7.90202 15.6963 7.94022 15.7712 7.9589C15.6488 8.07504 15.5297 8.18789 15.4307 8.28157Z" fill="#A1A1A1"/>
<path d="M7.86123 15.3878L8.16469 15.7012L7.8542 16L7.55317 15.7003L7.86123 15.3878Z" fill="#A1A1A1"/>
<path d="M0.69273 7.98366C0.486183 8.05323 0.356516 8.1502 0.317535 8.30276L0 7.97791L0.320512 7.6536C0.356787 7.80124 0.480769 7.91354 0.69273 7.98366Z" fill="#A1A1A1"/>
<path d="M6.61277 11.2444V11.3671H3.35431C3.31858 11.2627 3.33888 11.2077 3.44797 11.1691C3.97449 10.9828 4.33913 10.6213 4.56652 10.106C5.61144 7.73765 6.65816 5.37017 7.70668 3.00361C7.75352 2.8976 7.80495 2.79352 7.86911 2.65794C8.07376 3.10769 8.26542 3.52376 8.45247 3.94201C9.35744 5.96428 10.2692 7.98325 11.1595 10.0118C11.4115 10.587 11.7919 10.9858 12.3758 11.1948C12.4137 11.2085 12.4264 11.294 12.4605 11.3671H8.94136C8.90834 11.2685 8.91105 11.2028 9.0334 11.1639C9.28729 11.0816 9.51892 10.9409 9.71016 10.753C9.83956 10.6292 9.86907 10.4958 9.7995 10.335C9.69663 10.0976 9.59313 9.86025 9.489 9.62286C9.34499 9.29417 9.19853 8.96548 9.05587 8.63679C9.02583 8.5664 8.99171 8.53243 8.90807 8.53271C8.15894 8.53673 7.40999 8.53673 6.66123 8.53271C6.58164 8.53271 6.5413 8.55681 6.50882 8.63131C6.26519 9.1857 6.01695 9.73708 5.77413 10.2915C5.65962 10.5533 5.6802 10.661 5.91571 10.8267C6.13092 10.9749 6.3621 11.0951 6.61277 11.2444ZM6.9544 7.59786H8.613L7.78275 5.7079C7.49851 6.35679 7.22943 6.97034 6.9544 7.59786Z" fill="#A1A1A1"/>
<path d="M12.0127 7.98362L12.3184 7.66945L12.647 7.99814C12.5135 8.05292 12.3763 8.14276 12.3435 8.31861L12.0127 7.98362Z" fill="#A1A1A1"/>
<path d="M3.45528 8.2824C3.36107 8.18708 3.25171 8.07642 3.1575 7.9811L3.46069 7.67761C3.55354 7.76992 3.66534 7.8803 3.76659 7.98055L3.45528 8.2824Z" fill="#A1A1A1"/>
</svg>
