<svg width="16" height="16" viewBox="0 0 16 16" fill="none" xmlns="http://www.w3.org/2000/svg">
<path d="M15.3398 7.19263C15.3398 7.22598 15.3398 7.25932 15.3398 7.29228C15.3249 7.67951 15.2347 7.74817 14.8557 7.66225C14.4174 7.56338 14.0082 7.74072 13.7783 8.13305C13.6194 8.40297 13.521 8.42808 13.2636 8.2633C12.8924 8.02515 12.4691 8.17267 12.2687 8.60933C12.0682 9.046 11.985 9.05894 11.6437 8.72939C11.3216 8.41866 10.8308 8.37237 10.5514 8.82198C10.4392 9.00284 10.2838 9.01422 10.1136 8.88161C9.66083 8.52851 9.27595 8.51949 8.81026 8.85179C8.64155 8.97224 8.47325 8.95655 8.38341 8.79059C7.94203 7.97847 8.01029 7.02511 8.79809 6.45544C9.06919 6.25928 9.18728 6.28321 9.35677 6.5653C9.65808 7.06787 10.1716 7.10082 10.6252 6.9894C10.6675 6.9792 10.7076 6.92074 10.7303 6.87563C10.8155 6.70771 10.8916 6.53508 10.9736 6.3656C11.1937 5.9101 11.6531 5.82065 12.0227 6.16159C12.1655 6.29302 12.3028 6.43073 12.4491 6.55784C12.4923 6.59647 12.5481 6.61784 12.606 6.61787C13.1722 6.56059 13.5084 6.24633 13.6167 5.68648C13.6602 5.45971 13.7842 5.38321 14.033 5.44323C14.7211 5.6088 15.1362 6.04624 15.2912 6.73164C15.3249 6.88191 15.3304 7.03845 15.352 7.19185L15.3398 7.19263Z" fill="#A1A1A1"/>
<path d="M7.29395 4.49257C7.35515 4.26463 7.40301 4.03198 7.48148 3.80992C7.54896 3.61886 7.70275 3.5655 7.88401 3.66044C8.4011 3.93115 8.84992 3.74126 9.19046 3.38856C9.24137 3.3281 9.26733 3.25052 9.26305 3.1716C9.24775 2.98446 9.20695 2.79928 9.17791 2.61332C9.09945 2.12016 9.44469 1.77961 9.93667 1.85926C10.1062 1.88711 10.28 1.89849 10.4467 1.94204C10.5915 1.98127 10.6739 1.92007 10.7606 1.82434C11.1345 1.42691 11.2008 1.05381 10.9787 0.563394C10.894 0.376253 10.9418 0.246784 11.1294 0.156548C11.712 -0.124752 12.4005 -0.0254962 12.9043 0.442553C13.0879 0.613217 13.2377 0.826646 13.3774 1.03733C13.5026 1.22525 13.4272 1.39042 13.2154 1.46889C12.6908 1.65839 12.4739 1.98441 12.4982 2.54583C12.5092 2.79104 12.4197 2.90599 12.1918 2.89501C11.6496 2.86951 11.4405 3.34619 11.515 3.74048C11.6013 4.19833 11.5303 4.27052 11.0654 4.19362C10.5554 4.10966 10.2415 4.36703 10.2207 4.88412C10.2121 5.09677 10.1007 5.19563 9.88842 5.17759C9.33916 5.13168 8.98018 5.36551 8.79618 5.88966C8.72791 6.08308 8.57804 6.1643 8.40855 6.07955C7.89342 5.82336 7.32376 5.26821 7.29395 4.49257Z" fill="#A1A1A1"/>
<path d="M12.526 9.60395C12.4946 10.0355 12.4919 10.4718 12.4103 10.8931C11.9042 13.5088 9.87348 15.4701 7.23624 15.9055C6.91453 15.9589 6.58615 15.9699 6.2609 16.0001C3.28665 15.9754 0.692568 13.8548 0.122905 10.9669C-0.544056 7.59561 1.56668 4.34869 4.92149 3.6064C5.37228 3.50675 5.84385 3.50047 6.30602 3.45496C6.37075 3.44829 6.4551 3.4428 6.50218 3.47654C6.57516 3.53107 6.65245 3.61111 6.67521 3.69467C6.71209 3.82924 6.61674 3.91163 6.50297 3.98225C6.1844 4.18077 5.83601 4.353 5.56413 4.60252C4.27336 5.77951 3.81943 7.24212 4.32514 8.91305C4.82419 10.5608 5.99608 11.535 7.69918 11.8081C9.42543 12.085 11.1662 11.1505 11.9595 9.57178C11.9744 9.54196 11.9885 9.51214 12.0027 9.48193C12.0654 9.34658 12.1659 9.26615 12.3193 9.30303C12.4727 9.33991 12.5366 9.45682 12.526 9.60395Z" fill="#A1A1A1"/>
</svg>
