<svg width="17" height="29" viewBox="0 0 17 29" fill="none" xmlns="http://www.w3.org/2000/svg">
<path d="M16.4886 5.07335C16.1834 2.00761 13.8198 0.0359892 10.8428 0.0138539C9.07424 -0.00037595 7.30267 -0.0114431 5.53414 0.0217598C2.82261 0.0739359 0.414721 2.1594 0.16905 4.94212C-0.0368314 7.25541 -0.0546928 9.58254 0.115647 11.8989C0.335377 14.8255 2.47164 16.8462 5.28999 17.1165C5.83169 17.1687 6.38254 17.1244 6.94408 17.1244V28.8577L9.69987 28.8324V17.1482C10.1454 17.1482 10.5452 17.1561 10.942 17.1482C13.8213 17.0802 16.1895 15.1006 16.481 12.144C16.7112 9.79328 16.7137 7.4246 16.4886 5.07335ZM13.8793 11.5005C13.8122 13.1844 12.5884 14.3164 10.9572 14.3607C10.063 14.3844 9.16885 14.3607 8.27466 14.3607C7.37896 14.3607 6.48478 14.386 5.5906 14.3607C4.01281 14.3085 2.79056 13.11 2.74478 11.4815C2.6929 9.55154 2.6929 7.61996 2.74478 5.68681C2.78903 4.04406 4.02654 2.82187 5.644 2.78709C7.43237 2.74756 9.22225 2.7444 11.0106 2.78709C12.5991 2.82662 13.8168 4.00453 13.8808 5.65045C13.9556 7.5952 13.9571 9.55733 13.8793 11.5005Z" fill="#0A090C"/>
</svg>
