<svg width="16" height="14" viewBox="0 0 16 14" fill="none" xmlns="http://www.w3.org/2000/svg">
<path d="M13.12 11.52H2.88C2.35072 11.52 1.92 11.9507 1.92 12.48C1.92 13.0093 2.35072 13.44 2.88 13.44H13.12C13.6493 13.44 14.08 13.0093 14.08 12.48C14.08 11.9507 13.6493 11.52 13.12 11.52ZM14.72 1.92C14.0141 1.92 13.44 2.49409 13.44 3.2C13.44 3.67425 13.7024 4.08447 14.087 4.30591C13.3466 6.0595 12.1913 7.13534 11.1117 7.03806C9.91103 6.94016 8.93181 5.52063 8.39166 3.14559C9.08412 2.97022 9.59997 2.34622 9.59997 1.6C9.59997 0.717438 8.88253 0 7.99997 0C7.11741 0 6.39997 0.717438 6.39997 1.6C6.39997 2.34625 6.91581 2.97025 7.60828 3.14559C7.06812 5.52063 6.08891 6.94016 4.88828 7.03806C3.81309 7.13534 2.65275 6.0595 1.91294 4.30591C2.29756 4.08447 2.55997 3.67422 2.55997 3.2C2.55997 2.49409 1.98588 1.92 1.27997 1.92C0.574094 1.92 0 2.49409 0 3.2C0 3.85666 0.499188 4.39297 1.13663 4.46591L2.36928 10.88H13.6307L14.8633 4.46591C15.5008 4.39297 16 3.85666 16 3.2C16 2.49409 15.4259 1.92 14.72 1.92Z" fill="#A1A1A1"/>
</svg>
