<svg width="16" height="16" viewBox="0 0 16 16" fill="none" xmlns="http://www.w3.org/2000/svg">
<path d="M14.8294 6.63928C14.7853 4.34239 14.4653 2.64831 14.4697 2.64674C14.3366 2.38705 14.1031 2.16986 13.8175 2.05893C11.9425 1.33173 10.0987 0.637662 8.3012 0.0454692C8.11745 -0.0151564 7.9237 -0.0151564 7.74026 0.0454692C5.94306 0.6361 4.0996 1.32892 2.22489 2.05518C1.9727 2.15299 1.76114 2.33393 1.62333 2.55393C1.63395 2.55518 1.23801 3.79113 1.17051 6.52084C1.13051 9.25087 1.47051 10.0687 1.45926 10.0696C1.64333 10.6696 1.98771 11.28 2.48115 11.9006C3.03272 12.5937 3.77803 13.3097 4.67836 14.0134C6.16868 15.1831 7.56338 15.8822 7.62182 15.9069C7.74838 15.9687 7.88245 16.0003 8.02058 16C8.15901 16 8.29308 15.9684 8.41933 15.9062C8.47808 15.8816 9.87434 15.1803 11.364 14.0109C12.2647 13.3065 13.01 12.5906 13.5619 11.8978C14.0906 11.2331 14.4481 10.5809 14.621 9.94025C14.6141 9.93931 14.8641 8.9368 14.8294 6.6396V6.63928ZM8.76246 8.43086V9.88619C8.76246 10.2962 8.43027 10.6284 8.02026 10.6287C7.61026 10.6287 7.27776 10.2965 7.27776 9.8865V8.45149C6.74275 8.18555 6.37462 7.63367 6.37462 6.99585C6.37462 6.09834 7.10213 5.37052 7.99964 5.37052C8.89715 5.37052 9.62465 6.09803 9.62497 6.99554C9.62497 7.61742 9.27559 8.15773 8.76246 8.43086Z" fill="#A1A1A1"/>
</svg>
