<svg width="23" height="23" viewBox="0 0 23 23" fill="none" xmlns="http://www.w3.org/2000/svg">
<path d="M18.9818 6.96547L8.17057 1.54772C0.891178 -2.0821 -2.08423 0.893307 1.55458 8.16371L3.16285 11.372L1.55351 14.5808C-2.08765 21.8524 0.895754 24.8358 8.16733 21.1947L18.9803 15.7913C23.8251 13.3549 23.8347 9.39135 18.9818 6.96547ZM14.4332 12.0892L7.5846 12.1083C7.31497 12.1083 7.08131 12.0005 6.91058 11.8298C6.73984 11.659 6.63203 11.4254 6.63207 11.1557C6.63215 10.6344 7.06363 10.203 7.58491 10.2029L14.4335 10.1838C14.9548 10.1837 15.3861 10.615 15.386 11.1363C15.386 11.6576 14.9545 12.0891 14.4332 12.0892Z" fill="#AABFFF"/>
</svg>
