<svg width="13" height="14" viewBox="0 0 13 14" fill="none" xmlns="http://www.w3.org/2000/svg">
<path d="M10.74 2.27833L7.29333 0.285C6.63333 -0.095 5.6 -0.095 4.94 0.285L1.46 2.29167C0.0800001 3.225 0 3.365 0 4.85167V8.47167C0 9.95833 0.0800001 10.105 1.48667 11.0517L4.93333 13.045C5.26667 13.2383 5.69333 13.3317 6.11333 13.3317C6.53333 13.3317 6.96 13.2383 7.28667 13.045L10.7667 11.0383C12.1467 10.105 12.2267 9.965 12.2267 8.47833V4.85167C12.2267 3.365 12.1467 3.225 10.74 2.27833ZM6.11333 8.83167C4.92 8.83167 3.94667 7.85833 3.94667 6.665C3.94667 5.47167 4.92 4.49833 6.11333 4.49833C7.30667 4.49833 8.28 5.47167 8.28 6.665C8.28 7.85833 7.30667 8.83167 6.11333 8.83167Z" fill="#A1A1A1"/>
</svg>
