<svg width="22" height="22" viewBox="0 0 22 22" fill="none" xmlns="http://www.w3.org/2000/svg">
<path d="M8.11246 2.20009C8.2948 2.20009 8.46966 2.27252 8.5986 2.40145C8.72753 2.53038 8.79996 2.70525 8.79996 2.88759C8.79996 3.06992 8.72753 3.24479 8.5986 3.37372C8.46966 3.50265 8.2948 3.57508 8.11246 3.57508H3.98748C3.29461 3.57508 2.63011 3.85033 2.14017 4.34026C1.65024 4.8302 1.37499 5.4947 1.37499 6.18757V18.0125C1.37499 18.3556 1.44257 18.6953 1.57386 19.0123C1.70515 19.3292 1.89758 19.6172 2.14017 19.8598C2.38277 20.1024 2.67076 20.2949 2.98773 20.4261C3.30469 20.5574 3.6444 20.625 3.98748 20.625H15.8124C16.1555 20.625 16.4952 20.5574 16.8122 20.4261C17.1291 20.2949 17.4171 20.1024 17.6597 19.8598C17.9023 19.6172 18.0948 19.3292 18.226 19.0123C18.3573 18.6953 18.4249 18.3556 18.4249 18.0125V14.4375C18.4249 14.2552 18.4973 14.0803 18.6263 13.9514C18.7552 13.8225 18.9301 13.75 19.1124 13.75C19.2947 13.75 19.4696 13.8225 19.5985 13.9514C19.7275 14.0803 19.7999 14.2552 19.7999 14.4375V18.0125C19.7999 19.0701 19.3798 20.0843 18.632 20.8321C17.8842 21.5799 16.87 22 15.8124 22H3.98748C2.92994 22 1.9157 21.5799 1.16791 20.8321C0.420109 20.0843 0 19.0701 0 18.0125V6.18757C0 5.13003 0.420109 4.11579 1.16791 3.368C1.9157 2.6202 2.92994 2.20009 3.98748 2.20009H8.11246ZM13.047 0.0638998C13.1659 0.00872242 13.2981 -0.0113262 13.428 0.00611632C13.5579 0.0235588 13.6801 0.0777656 13.7802 0.162349L21.7551 6.89982C21.8298 6.96292 21.8902 7.04123 21.9322 7.12951C21.9742 7.2178 21.9969 7.31403 21.9988 7.41179C22.0007 7.50954 21.9817 7.60657 21.9431 7.6964C21.9045 7.78623 21.8472 7.8668 21.7749 7.93271L13.8 15.2202C13.7015 15.3101 13.5791 15.3694 13.4475 15.391C13.3159 15.4126 13.1809 15.3954 13.0589 15.3416C12.9369 15.2878 12.8332 15.1997 12.7604 15.088C12.6876 14.9763 12.6488 14.8459 12.6488 14.7125V11.5654C11.5186 11.6193 10.4368 11.8239 9.32796 12.3723C8.07396 12.9916 6.73472 14.0745 5.24808 15.972L4.94888 16.3625C4.87009 16.4677 4.76282 16.548 4.63977 16.5941C4.51672 16.6402 4.38305 16.65 4.25458 16.6225C4.12611 16.5949 4.00822 16.5311 3.91488 16.4387C3.82153 16.3462 3.75664 16.2289 3.72788 16.1007L3.71303 15.9957C3.56673 13.8001 4.14698 10.8037 5.65122 8.33861C7.07407 6.00772 9.3582 4.10748 12.6488 3.87428V0.687597C12.6488 0.419748 12.8039 0.176649 13.047 0.0638998Z" fill="#F3F3F3"/>
</svg>
