<svg width="14" height="16" viewBox="0 0 14 16" fill="none" xmlns="http://www.w3.org/2000/svg">
<path d="M8.40513 0H4.83322C4.04284 0 3.39685 0.638385 3.39685 1.42877V2.14315C3.39685 2.93353 4.03524 3.57192 4.82562 3.57192H8.40513C9.19552 3.57192 9.8339 2.93353 9.8339 2.14315V1.42877C9.8415 0.638385 9.19552 0 8.40513 0Z" fill="#A1A1A1"/>
<path d="M10.6018 2.14371C10.6018 3.35208 9.61378 4.34006 8.4054 4.34006H4.83349C3.62511 4.34006 2.63714 3.35208 2.63714 2.14371C2.63714 1.71812 2.18115 1.45212 1.80116 1.64972C0.729583 2.21971 0 3.35208 0 4.65165V11.8031C0 13.6726 1.52756 15.2002 3.39712 15.2002H9.84177C11.7113 15.2002 13.2389 13.6726 13.2389 11.8031V4.65165C13.2389 3.35208 12.5093 2.21971 11.4377 1.64972C11.0577 1.45212 10.6018 1.71812 10.6018 2.14371ZM6.90824 11.3623H3.57952C3.26792 11.3623 3.00953 11.1039 3.00953 10.7923C3.00953 10.4807 3.26792 10.2223 3.57952 10.2223H6.90824C7.21983 10.2223 7.47823 10.4807 7.47823 10.7923C7.47823 11.1039 7.21983 11.3623 6.90824 11.3623ZM8.89939 8.32236H3.57952C3.26792 8.32236 3.00953 8.06397 3.00953 7.75238C3.00953 7.44078 3.26792 7.18239 3.57952 7.18239H8.89939C9.21098 7.18239 9.46938 7.44078 9.46938 7.75238C9.46938 8.06397 9.21098 8.32236 8.89939 8.32236Z" fill="#A1A1A1"/>
</svg>
